<?xml version="1.0" encoding="utf-8"?>
<!-- Generator: Adobe Illustrator 16.0.0, SVG Export Plug-In . SVG Version: 6.00 Build 0)  -->
<!DOCTYPE svg PUBLIC "-//W3C//DTD SVG 1.1//EN" "http://www.w3.org/Graphics/SVG/1.1/DTD/svg11.dtd">
<svg version="1.1" id="Layer_1" xmlns="http://www.w3.org/2000/svg" xmlns:xlink="http://www.w3.org/1999/xlink" x="0px" y="0px"
	 width="43.082px" height="42px" viewBox="0 0 43.082 42" enable-background="new 0 0 43.082 42" xml:space="preserve">
<path fill="#475DCC" d="M21.544,0C9.647,0,0,9.646,0,21.546c0,9.517,6.172,17.593,14.735,20.442c1.077,0.199,1.47-0.469,1.47-1.038
	c0-0.513-0.019-1.865-0.029-3.662c-5.994,1.3-7.258-2.89-7.258-2.89c-0.98-2.489-2.392-3.151-2.392-3.151
	c-1.957-1.338,0.147-1.31,0.147-1.31c2.163,0.149,3.3,2.22,3.3,2.22c1.922,3.293,5.042,2.342,6.271,1.79
	c0.195-1.393,0.752-2.342,1.367-2.881c-4.784-0.541-9.813-2.393-9.813-10.647c0-2.352,0.839-4.275,2.218-5.781
	c-0.222-0.546-0.961-2.736,0.211-5.702c0,0,1.809-0.58,5.925,2.209c1.718-0.479,3.562-0.717,5.394-0.726
	c1.831,0.008,3.672,0.247,5.396,0.726c4.111-2.789,5.918-2.209,5.918-2.209c1.177,2.966,0.438,5.156,0.215,5.702
	c1.38,1.506,2.214,3.429,2.214,5.781c0,8.276-5.036,10.097-9.835,10.632c0.771,0.663,1.461,1.979,1.461,3.988
	c0,2.881-0.023,5.206-0.023,5.911c0,0.575,0.387,1.247,1.479,1.034C36.924,39.13,43.09,31.061,43.09,21.546
	C43.089,9.646,33.441,0,21.544,0z"/>
</svg>
