<?xml version="1.0" encoding="utf-8"?>
<!-- Generator: Adobe Illustrator 16.0.0, SVG Export Plug-In . SVG Version: 6.00 Build 0)  -->
<!DOCTYPE svg PUBLIC "-//W3C//DTD SVG 1.1//EN" "http://www.w3.org/Graphics/SVG/1.1/DTD/svg11.dtd">
<svg version="1.1" id="Layer_1" xmlns="http://www.w3.org/2000/svg" xmlns:xlink="http://www.w3.org/1999/xlink" x="0px" y="0px"
	 width="42px" height="42px" viewBox="0 0 42 42" enable-background="new 0 0 42 42" xml:space="preserve">
<g>
	<polygon fill="#475DCC" points="29.638,16.399 29.638,13.04 29.638,12.538 29.134,12.54 25.775,12.551 25.789,16.412 	"/>
	<path fill="#475DCC" d="M20.882,25.314c2.211,0,4.011-1.799,4.011-4.01c0-0.872-0.285-1.68-0.759-2.338
		c-0.729-1.009-1.915-1.672-3.252-1.672c-1.338,0-2.521,0.663-3.251,1.672c-0.476,0.658-0.757,1.466-0.757,2.338
		C16.873,23.516,18.67,25.314,20.882,25.314z"/>
	<path fill="#475DCC" d="M20.986,0.03C9.412,0.03,0.028,9.412,0.028,20.985c0,11.574,9.383,20.957,20.958,20.957
		c11.573,0,20.955-9.383,20.955-20.957C41.941,9.412,32.558,0.03,20.986,0.03z M32.274,18.966v9.328
		c0,2.428-1.978,4.401-4.403,4.401H13.892c-2.428,0-4.402-1.974-4.402-4.401v-9.328v-4.649c0-2.429,1.975-4.402,4.402-4.402h13.979
		c2.426,0,4.403,1.974,4.403,4.402V18.966z"/>
	<path fill="#475DCC" d="M27.11,21.305c0,3.435-2.791,6.229-6.229,6.229c-3.436,0-6.228-2.795-6.228-6.229
		c0-0.827,0.164-1.615,0.457-2.338h-3.401v9.328c0,1.204,0.98,2.183,2.182,2.183h13.979c1.204,0,2.181-0.979,2.181-2.183v-9.328
		h-3.402C26.946,19.689,27.11,20.478,27.11,21.305z"/>
</g>
</svg>
