<?xml version="1.0" encoding="utf-8"?>
<!-- Generator: Adobe Illustrator 16.0.0, SVG Export Plug-In . SVG Version: 6.00 Build 0)  -->
<!DOCTYPE svg PUBLIC "-//W3C//DTD SVG 1.1//EN" "http://www.w3.org/Graphics/SVG/1.1/DTD/svg11.dtd">
<svg version="1.1" id="Layer_1" xmlns="http://www.w3.org/2000/svg" xmlns:xlink="http://www.w3.org/1999/xlink" x="0px" y="0px"
	 width="42px" height="42px" viewBox="0 0 42 42" enable-background="new 0 0 42 42" xml:space="preserve">
<path fill-rule="evenodd" clip-rule="evenodd" fill="#475DCC" d="M21.126-0.169C9.51-0.169,0.093,9.253,0.093,20.875
	c0,11.623,9.417,21.044,21.034,21.044c11.615,0,21.031-9.422,21.031-21.044C42.157,9.253,32.741-0.169,21.126-0.169z M32.684,16.168
	c0.013,0.225,0.02,0.455,0.02,0.685c0,7.027-5.343,15.123-15.114,15.123c-2.994,0-5.785-0.876-8.131-2.401
	c0.417,0.049,0.838,0.075,1.267,0.075c2.489,0,4.781-0.849,6.596-2.272c-2.325-0.043-4.288-1.579-4.962-3.691
	c0.324,0.066,0.658,0.099,0.999,0.099c0.482,0,0.954-0.066,1.398-0.188c-2.429-0.488-4.261-2.632-4.261-5.208
	c0-0.022,0-0.045,0-0.066c0.713,0.399,1.536,0.641,2.407,0.664c-1.425-0.955-2.363-2.584-2.363-4.425
	c0-0.972,0.263-1.887,0.717-2.671c2.617,3.219,6.532,5.335,10.947,5.555c-0.095-0.389-0.138-0.795-0.138-1.212
	c0-2.934,2.373-5.314,5.307-5.314c1.523,0,2.906,0.647,3.876,1.684c1.213-0.235,2.349-0.68,3.373-1.288
	c-0.396,1.239-1.238,2.281-2.336,2.938c1.074-0.131,2.094-0.417,3.05-0.839C34.62,14.479,33.722,15.417,32.684,16.168z"/>
</svg>
